<?xml version="1.0" encoding="utf-8"?>
<!-- Generator: Adobe Illustrator 18.1.1, SVG Export Plug-In . SVG Version: 6.00 Build 0)  -->
<svg version="1.1" id="Layer_3" xmlns="http://www.w3.org/2000/svg" xmlns:xlink="http://www.w3.org/1999/xlink" x="0px" y="0px"
	 viewBox="0 0 300 300" enable-background="new 0 0 300 300" xml:space="preserve">
<g id="New_Symbol_22">
	<g>
		<polygon fill="#BCBEC0" points="174.1,232.6 167.1,225.5 150,242.6 132.9,225.5 125.9,232.6 142.9,249.7 125.9,266.8 132.9,273.8 
			150,256.8 167.1,273.8 174.1,266.8 157.1,249.7 		"/>
		<defs>
			<filter id="Adobe_OpacityMaskFilter" filterUnits="userSpaceOnUse" x="10.5" y="36.2" width="278.9" height="218.5">
				<feFlood  style="flood-color:white;flood-opacity:1" result="back"/>
				<feBlend  in="SourceGraphic" in2="back" mode="normal"/>
			</filter>
		</defs>
		<mask maskUnits="userSpaceOnUse" x="10.5" y="36.2" width="278.9" height="218.5" id="SVGID_1_">
			<g filter="url(#Adobe_OpacityMaskFilter)">
				<circle stroke="#000000" stroke-width="8" stroke-miterlimit="10" cx="150" cy="249.7" r="32.3"/>
			</g>
		</mask>
		<g mask="url(#SVGID_1_)">
			<g>
				<g>
					<rect x="10.5" y="244.7" fill="#BCBEC0" width="103.7" height="10"/>
				</g>
				<g>
					<rect x="185.8" y="244.7" fill="#BCBEC0" width="103.7" height="10"/>
				</g>
			</g>
			<g>
				<path fill="#9BCC50" d="M215.5,141.5H84.1c-13.2,0-24,9.8-24,21.9s10.8,21.9,24,21.9H146v28.6h8v-28.6h61.5
					c13.2,0,24-9.8,24-21.9S228.8,141.5,215.5,141.5z M215.5,177.4H84.1c-8.8,0-16-6.2-16-13.9s7.2-13.9,16-13.9h131.4
					c8.8,0,16,6.2,16,13.9S224.4,177.4,215.5,177.4z"/>
				<path fill="#9BCC50" d="M81.9,156.7c-3.8,0-6.9,3.1-6.9,6.9s3.1,6.9,6.9,6.9s6.9-3.1,6.9-6.9S85.7,156.7,81.9,156.7z"/>
				<path fill="#9BCC50" d="M215.5,88.8H84.1c-13.2,0-24,9.8-24,21.9s10.8,21.9,24,21.9h131.4c13.2,0,24-9.8,24-21.9
					S228.8,88.8,215.5,88.8z M215.5,124.7H84.1c-8.8,0-16-6.2-16-13.9s7.2-13.9,16-13.9h131.4c8.8,0,16,6.2,16,13.9
					S224.4,124.7,215.5,124.7z"/>
				<path fill="#9BCC50" d="M81.9,104.1c-3.8,0-6.9,3.1-6.9,6.9s3.1,6.9,6.9,6.9s6.9-3.1,6.9-6.9S85.7,104.1,81.9,104.1z"/>
				<path fill="#9BCC50" d="M84.1,80h131.4c13.2,0,24-9.8,24-21.9s-10.8-21.9-24-21.9H84.1c-13.2,0-24,9.8-24,21.9S70.9,80,84.1,80z
					 M84.1,44.2h131.4c8.8,0,16,6.2,16,13.9s-7.2,13.9-16,13.9H84.1c-8.8,0-16-6.2-16-13.9S75.3,44.2,84.1,44.2z"/>
				<path fill="#9BCC50" d="M81.9,65.2c3.8,0,6.9-3.1,6.9-6.9s-3.1-6.9-6.9-6.9S75,54.5,75,58.3S78.1,65.2,81.9,65.2z"/>
			</g>
		</g>
	</g>
</g>
</svg>
